<?xml version="1.0" encoding="iso-8859-1"?>
<!-- Generator: Adobe Illustrator 19.0.0, SVG Export Plug-In . SVG Version: 6.00 Build 0)  -->
<svg version="1.1" id="Capa_1" xmlns="http://www.w3.org/2000/svg" xmlns:xlink="http://www.w3.org/1999/xlink" x="0px" y="0px"
	 viewBox="0 0 368 368" style="enable-background:new 0 0 368 368;" xml:space="preserve">
<g>
	<g>
		<path d="M344,0H24C10.768,0,0,10.768,0,24v320c0,13.232,10.768,24,24,24h320c13.232,0,24-10.768,24-24V24
			C368,10.768,357.232,0,344,0z M80,16h208v48H80V16z M16,24c0-4.408,3.584-8,8-8h40v48H16V24z M352,344c0,4.408-3.584,8-8,8H24
			c-4.416,0-8-3.592-8-8V80h336V344z M352,64h-48V16h40c4.416,0,8,3.592,8,8V64z"/>
	</g>
</g>
<g>
	<g>
		<path d="M128,256c-4.424,0-8,3.584-8,8c0,4.408-3.584,8-8,8H72c-4.416,0-8-3.592-8-8v-96c0-4.416,3.584-8,8-8h40
			c4.416,0,8,3.592,8,8c0,4.416,3.576,8,8,8s8-3.584,8-8c0-13.232-10.768-24-24-24H72c-13.232,0-24,10.768-24,24v96
			c0,13.232,10.768,24,24,24h40c13.232,0,24-10.768,24-24C136,259.584,132.424,256,128,256z"/>
	</g>
</g>
<g>
	<g>
		<path d="M216,208h-16v-16c0-4.416-3.576-8-8-8s-8,3.584-8,8v16h-16c-4.424,0-8,3.584-8,8c0,4.416,3.576,8,8,8h16v16
			c0,4.416,3.576,8,8,8s8-3.584,8-8v-16h16c4.424,0,8-3.584,8-8C224,211.584,220.424,208,216,208z"/>
	</g>
</g>
<g>
	<g>
		<path d="M312,208h-16v-16c0-4.416-3.576-8-8-8s-8,3.584-8,8v16h-16c-4.424,0-8,3.584-8,8c0,4.416,3.576,8,8,8h16v16
			c0,4.416,3.576,8,8,8s8-3.584,8-8v-16h16c4.424,0,8-3.584,8-8C320,211.584,316.424,208,312,208z"/>
	</g>
</g>
<g>
</g>
<g>
</g>
<g>
</g>
<g>
</g>
<g>
</g>
<g>
</g>
<g>
</g>
<g>
</g>
<g>
</g>
<g>
</g>
<g>
</g>
<g>
</g>
<g>
</g>
<g>
</g>
<g>
</g>
</svg>
